<?xml version="1.0" encoding="UTF-8"?>
<svg version="1.1" xmlns="http://www.w3.org/2000/svg" width="64" height="64">
<path d="M0 0 C4.55555556 0.55555556 4.55555556 0.55555556 6 2 C6.15686249 3.55948542 6.25076639 5.12542668 6.31640625 6.69140625 C6.35830078 7.63564453 6.40019531 8.57988281 6.44335938 9.55273438 C6.48267578 10.54595703 6.52199219 11.53917969 6.5625 12.5625 C6.60568359 13.55958984 6.64886719 14.55667969 6.69335938 15.58398438 C6.79980298 18.0558415 6.90181928 20.5278031 7 23 C8.65 23 10.3 23 12 23 C12.66 24.65 13.32 26.3 14 28 C12.90033225 29.29549899 11.79508199 30.58626071 10.6875 31.875 C10.07261719 32.59429687 9.45773438 33.31359375 8.82421875 34.0546875 C7 36 7 36 4 38 C0.69691811 38.07507004 -1.29383233 37.55164837 -3.91015625 35.5078125 C-9.63832494 30.02664903 -9.63832494 30.02664903 -10 26 C-9.01 24.515 -9.01 24.515 -8 23 C-5.375 22.8125 -5.375 22.8125 -3 23 C-2.98018066 22.37432129 -2.96036133 21.74864258 -2.93994141 21.10400391 C-2.84485774 18.27723481 -2.73511254 15.45122185 -2.625 12.625 C-2.57859375 11.14773437 -2.57859375 11.14773437 -2.53125 9.640625 C-2.47324219 8.22910156 -2.47324219 8.22910156 -2.4140625 6.7890625 C-2.3826416 5.91975098 -2.3512207 5.05043945 -2.31884766 4.15478516 C-2 2 -2 2 0 0 Z " fill="#F7F7F7" transform="translate(30,13)"/>
</svg>
