<?xml version="1.0" standalone="no"?>
<!DOCTYPE svg PUBLIC "-//W3C//DTD SVG 20010904//EN"
 "http://www.w3.org/TR/2001/REC-SVG-20010904/DTD/svg10.dtd">
<svg version="1.0" xmlns="http://www.w3.org/2000/svg"
 width="500.000000pt" height="500.000000pt" viewBox="0 0 500.000000 500.000000"
 preserveAspectRatio="xMidYMid meet">

<g transform="translate(0.000000,500.000000) scale(0.100000,-0.100000)"
fill="#000000" stroke="none">
<path d="M4350 4599 c-51 -32 -234 -215 -378 -378 -70 -80 -136 -154 -148
-165 -11 -12 -51 -57 -89 -101 -72 -84 -309 -335 -533 -564 -73 -75 -175 -183
-225 -240 -51 -57 -139 -156 -197 -220 -58 -64 -114 -127 -125 -140 -140 -166
-365 -395 -471 -479 -40 -33 -64 -43 -118 -53 -151 -26 -307 11 -414 97 -142
115 -200 149 -232 139 -12 -4 -33 -25 -47 -48 -14 -23 -54 -71 -87 -107 -34
-36 -102 -110 -151 -165 -50 -55 -147 -156 -216 -225 -244 -243 -310 -327
-360 -455 -55 -140 -56 -318 -3 -525 52 -206 124 -314 279 -418 82 -55 275
-117 484 -156 110 -21 160 -20 240 4 115 35 180 82 386 279 139 133 326 360
412 501 102 166 108 181 108 265 0 78 -2 83 -65 210 l-65 130 0 110 c1 154 0
154 204 395 25 30 53 61 61 70 8 9 35 40 60 70 111 135 234 275 345 390 66 69
183 197 260 285 77 88 192 216 256 285 115 124 297 325 353 391 29 34 168 185
355 388 251 272 276 308 260 365 -23 79 -75 104 -139 65z m-180 -323 c0 -2 -8
-10 -17 -17 -16 -13 -17 -12 -4 4 13 16 21 21 21 13z m-570 -631 c-7 -9 -15
-13 -19 -10 -3 3 1 10 9 15 21 14 24 12 10 -5z m-60 -60 c0 -2 -20 -25 -45
-49 -25 -25 -45 -42 -45 -39 0 7 81 93 87 93 2 0 3 -2 3 -5z m-147 -158 c-28
-28 -59 -63 -69 -76 -11 -13 -28 -34 -39 -46 -11 -13 -42 -49 -70 -81 -27 -32
-64 -73 -82 -91 -17 -19 -51 -57 -74 -86 -24 -29 -97 -108 -164 -177 -130
-135 -215 -231 -261 -296 -63 -90 -146 -194 -229 -289 -119 -136 -153 -191
-172 -278 -27 -131 -6 -241 79 -412 73 -145 73 -198 0 -315 -53 -86 -205 -293
-293 -402 -130 -159 -326 -328 -449 -387 -63 -30 -85 -36 -140 -35 -102 1
-413 88 -446 125 -18 20 -15 22 108 147 70 70 172 179 229 242 160 179 435
528 465 589 15 31 34 65 42 76 70 93 -224 -241 -375 -426 -119 -146 -481 -522
-527 -546 -38 -20 -92 -10 -107 20 -6 12 -28 42 -49 67 -20 25 -44 59 -52 75
-29 56 -26 72 23 118 59 54 165 178 208 242 68 101 167 232 229 304 63 72 100
137 87 150 -6 5 -85 -74 -175 -175 -45 -50 -112 -137 -179 -231 -19 -26 -66
-85 -104 -131 -104 -126 -138 -140 -164 -67 -21 56 -28 256 -14 341 25 142 76
219 309 462 93 97 180 189 193 204 13 14 56 61 94 104 39 43 86 95 105 114 19
20 54 57 78 83 24 26 48 47 54 47 23 0 78 -45 78 -64 0 -26 -96 -134 -225
-252 -178 -163 -285 -294 -184 -226 52 35 307 259 385 339 45 46 89 83 98 83
9 0 34 -9 54 -19 94 -48 181 -66 312 -65 185 3 209 15 419 209 91 84 200 190
241 236 41 46 127 140 190 209 63 70 142 157 175 194 33 37 73 82 88 99 60 68
342 352 346 349 3 -1 -18 -26 -46 -55z"/>
</g>
</svg>
